<svg viewBox="0 0 760 330" xmlns="http://www.w3.org/2000/svg" font-family="Inter, system-ui, -apple-system, sans-serif" role="img">
  <title>The Medicare Alphabet — Two Pathways, Four Parts</title>
  <defs>
    <marker id="arr" markerWidth="8" markerHeight="6" refX="7" refY="3" orient="auto">
      <polygon points="0 0, 8 3, 0 6" fill="#9ca3af"/>
    </marker>
    <marker id="arr-b" markerWidth="8" markerHeight="6" refX="7" refY="3" orient="auto">
      <polygon points="0 0, 8 3, 0 6" fill="#1e3a8a"/>
    </marker>
    <marker id="arr-g" markerWidth="8" markerHeight="6" refX="7" refY="3" orient="auto">
      <polygon points="0 0, 8 3, 0 6" fill="#14532d"/>
    </marker>
  </defs>
  <rect width="760" height="330" rx="14" fill="#f8f8f6" stroke="#e2e2dc" stroke-width="1"/>
  <text x="380" y="26" text-anchor="middle" font-size="14" font-weight="700" fill="#111">The Medicare Alphabet — Two Pathways, Four Parts</text>
  <text x="380" y="44" text-anchor="middle" font-size="11" fill="#6b7280">All paths share the Part B premium ($202.90/mo) paid directly to the federal government</text>

  <!-- Start at 65 -->
  <rect x="300" y="54" width="160" height="34" rx="8" fill="#374151" stroke="#4b5563" stroke-width="1.5"/>
  <text x="380" y="68" text-anchor="middle" font-size="11" font-weight="600" fill="#fff">Turn 65</text>
  <text x="380" y="82" text-anchor="middle" font-size="9.5" fill="#d1d5db">Automatic Medicare eligibility</text>

  <!-- Arrow down to split -->
  <line x1="380" y1="88" x2="380" y2="108" stroke="#9ca3af" stroke-width="1.5" marker-end="url(#arr)"/>

  <!-- Choice box -->
  <rect x="280" y="108" width="200" height="28" rx="6" fill="#f1f5f9" stroke="#cbd5e1" stroke-width="1"/>
  <text x="380" y="126" text-anchor="middle" font-size="10" font-weight="600" fill="#374151">Choose your pathway</text>

  <!-- Left path line -->
  <line x1="280" y1="122" x2="180" y2="122" stroke="#1e3a8a" stroke-width="1.5"/>
  <line x1="180" y1="122" x2="180" y2="152" stroke="#1e3a8a" stroke-width="1.5" marker-end="url(#arr-b)"/>
  <text x="228" y="116" text-anchor="middle" font-size="9.5" fill="#1e3a8a">Pathway 1</text>

  <!-- Right path line -->
  <line x1="480" y1="122" x2="580" y2="122" stroke="#14532d" stroke-width="1.5"/>
  <line x1="580" y1="122" x2="580" y2="152" stroke="#14532d" stroke-width="1.5" marker-end="url(#arr-g)"/>
  <text x="532" y="116" text-anchor="middle" font-size="9.5" fill="#14532d">Pathway 2</text>

  <!-- PATHWAY 1: Original Medicare header -->
  <rect x="30" y="152" width="300" height="30" rx="7" fill="#1e3a8a"/>
  <text x="180" y="172" text-anchor="middle" font-size="12" font-weight="700" fill="#fff">Original Medicare</text>

  <!-- Part A -->
  <rect x="30" y="190" width="140" height="68" rx="8" fill="#eff6ff" stroke="#93c5fd" stroke-width="1.5"/>
  <text x="100" y="208" text-anchor="middle" font-size="11" font-weight="700" fill="#1e3a8a">Part A</text>
  <text x="100" y="222" text-anchor="middle" font-size="9.5" fill="#374151">Hospital coverage</text>
  <text x="100" y="236" text-anchor="middle" font-size="9.5" fill="#374151">Inpatient stays</text>
  <text x="100" y="250" text-anchor="middle" font-size="9" fill="#6b7280">$0 if 10yr work history</text>

  <!-- Part B -->
  <rect x="190" y="190" width="140" height="68" rx="8" fill="#eff6ff" stroke="#93c5fd" stroke-width="1.5"/>
  <text x="260" y="208" text-anchor="middle" font-size="11" font-weight="700" fill="#1e3a8a">Part B</text>
  <text x="260" y="222" text-anchor="middle" font-size="9.5" fill="#374151">Medical coverage</text>
  <text x="260" y="236" text-anchor="middle" font-size="9.5" fill="#374151">Doctor visits, labs</text>
  <text x="260" y="250" text-anchor="middle" font-size="9" fill="#6b7280">$202.90/mo (required)</text>

  <!-- Part D (below, full width) -->
  <rect x="30" y="266" width="140" height="44" rx="8" fill="#e0e7ff" stroke="#a5b4fc" stroke-width="1.5"/>
  <text x="100" y="284" text-anchor="middle" font-size="10.5" font-weight="700" fill="#3730a3">+ Part D</text>
  <text x="100" y="299" text-anchor="middle" font-size="9.5" fill="#374151">Standalone drug plan</text>

  <!-- Optional Medigap -->
  <rect x="190" y="266" width="140" height="44" rx="8" fill="#e0e7ff" stroke="#a5b4fc" stroke-width="1.5" stroke-dasharray="4 2"/>
  <text x="260" y="284" text-anchor="middle" font-size="10" font-weight="700" fill="#3730a3">+ Medigap</text>
  <text x="260" y="299" text-anchor="middle" font-size="9.5" fill="#374151">Optional gap cover</text>

  <!-- PATHWAY 2: Medicare Advantage -->
  <rect x="430" y="152" width="300" height="30" rx="7" fill="#14532d"/>
  <text x="580" y="172" text-anchor="middle" font-size="12" font-weight="700" fill="#fff">Medicare Advantage (Part C)</text>

  <!-- Big bundled box -->
  <rect x="430" y="190" width="300" height="120" rx="8" fill="#f0fdf4" stroke="#86efac" stroke-width="1.5"/>
  <text x="580" y="210" text-anchor="middle" font-size="11" font-weight="700" fill="#14532d">All-in-one private plan</text>
  <text x="580" y="229" text-anchor="middle" font-size="10" fill="#374151">Bundles Part A (hospital)</text>
  <text x="580" y="244" text-anchor="middle" font-size="10" fill="#374151">+ Part B (medical)</text>
  <text x="580" y="259" text-anchor="middle" font-size="10" fill="#374151">+ usually Part D (drugs)</text>
  <line x1="448" y1="268" x2="712" y2="268" stroke="#bbf7d0" stroke-width="1"/>
  <text x="580" y="284" text-anchor="middle" font-size="10" font-weight="600" fill="#14532d">Often $0 extra premium</text>
  <text x="580" y="299" text-anchor="middle" font-size="9.5" fill="#374151">Local network · annual OOP cap</text>

  <!-- Bottom note spanning full width -->
  <rect x="30" y="318" width="700" height="6" rx="3" fill="transparent"/>
  <rect x="120" y="316" width="520" height="8" rx="3" fill="#fef3c7" stroke="#fcd34d" stroke-width="1"/>
  <text x="380" y="323" text-anchor="middle" font-size="9" font-weight="600" fill="#78350f">$202.90 Part B premium is owed to the government under BOTH pathways</text>
</svg>
